<svg width="50" height="50" viewBox="0 0 50 50" fill="none" xmlns="http://www.w3.org/2000/svg">
<g id="Group 325">
<circle id="Ellipse 55" cx="25" cy="25" r="24.25" stroke="#333333" stroke-width="1.5"/>
<path id="Vector" d="M34.0678 28.6386L31.2399 28.3158C30.9074 28.2767 30.5703 28.3135 30.2541 28.4234C29.9378 28.5334 29.6506 28.7135 29.414 28.9504L27.3654 30.999C24.2048 29.3915 21.6358 26.8225 20.0284 23.6619L22.0881 21.6022C22.5668 21.1235 22.8007 20.4555 22.7227 19.7763L22.3998 16.9706C22.3367 16.4275 22.0761 15.9266 21.6675 15.5632C21.259 15.1998 20.731 14.9994 20.1843 15H18.2582C17.0001 15 15.9535 16.0466 16.0314 17.3047C16.6215 26.8127 24.2257 34.4058 33.7227 34.9959C34.9808 35.0738 36.0273 34.0273 36.0273 32.7692V30.8431C36.0385 29.7186 35.1923 28.7722 34.0678 28.6386Z" fill="#333333"/>
</g>
</svg>
