<svg width="50" height="50" viewBox="0 0 50 50" fill="none" xmlns="http://www.w3.org/2000/svg">
<g id="Group 322">
<circle id="Ellipse 55" cx="25" cy="25" r="24.25" stroke="#333333" stroke-width="1.5"/>
<g id="Group 321">
<path id="Vector" d="M24.7452 28.2629C26.6874 28.2629 28.2619 26.6884 28.2619 24.7462C28.2619 22.804 26.6874 21.2295 24.7452 21.2295C22.803 21.2295 21.2285 22.804 21.2285 24.7462C21.2285 26.6884 22.803 28.2629 24.7452 28.2629Z" fill="#333333"/>
<path id="Vector_2" d="M24.7461 8C15.4975 8 8 15.4975 8 24.7461C8 33.9947 15.4975 41.4922 24.7461 41.4922C33.9947 41.4922 41.4922 33.9947 41.4922 24.7461C41.4922 15.4975 33.9947 8 24.7461 8ZM35.0924 29.0023C35.012 30.5944 34.5646 32.1643 33.4044 33.3123C32.2329 34.4711 30.6555 34.9029 29.048 34.9824H20.4442C18.8366 34.9029 17.2594 34.4714 16.0879 33.3123C14.9276 32.1643 14.4803 30.5944 14.3999 29.0023V20.4899C14.4803 18.8978 14.9277 17.3278 16.0879 16.1799C17.2594 15.021 18.8368 14.5893 20.4442 14.5097H29.048C30.6556 14.5893 32.2328 15.0208 33.4043 16.1799C34.5646 17.3278 35.0119 18.8978 35.0923 20.4899L35.0924 29.0023Z" fill="#333333"/>
<path id="Vector_3" d="M28.9387 16.4494C26.8431 16.3919 22.6485 16.3919 20.5528 16.4494C19.4623 16.4793 18.2259 16.7508 17.4489 17.5807C16.6415 18.4434 16.3364 19.4857 16.3054 20.6517C16.251 22.6982 16.3054 28.8407 16.3054 28.8407C16.3409 30.0065 16.6415 31.0489 17.4489 31.9116C18.2259 32.7418 19.4623 33.013 20.5528 33.043C22.6485 33.1005 26.8431 33.1005 28.9387 33.043C30.0293 33.013 31.2656 32.7416 32.0427 31.9116C32.8501 31.0489 33.1552 30.0067 33.1862 28.8407V20.6517C33.1552 19.4857 32.8501 18.4434 32.0427 17.5807C31.2654 16.7505 30.029 16.4793 28.9387 16.4494ZM24.7455 30.197C23.6674 30.197 22.6136 29.8773 21.7172 29.2784C20.8208 28.6794 20.1222 27.8281 19.7096 26.8321C19.297 25.8361 19.1891 24.7401 19.3994 23.6828C19.6097 22.6254 20.1289 21.6542 20.8912 20.8918C21.6535 20.1295 22.6248 19.6104 23.6821 19.4001C24.7395 19.1897 25.8355 19.2977 26.8315 19.7102C27.8275 20.1228 28.6788 20.8215 29.2777 21.7178C29.8767 22.6142 30.1964 23.6681 30.1964 24.7462C30.1964 26.1918 29.6221 27.5783 28.5999 28.6005C27.5776 29.6227 26.1912 30.197 24.7455 30.197ZM30.2196 20.4205C30.0039 20.4204 29.7932 20.3564 29.614 20.2366C29.4347 20.1168 29.295 19.9465 29.2126 19.7473C29.1301 19.5481 29.1085 19.3289 29.1506 19.1174C29.1927 18.906 29.2966 18.7118 29.449 18.5593C29.6015 18.4069 29.7958 18.3031 30.0072 18.261C30.2187 18.219 30.4379 18.2406 30.6371 18.3231C30.8363 18.4056 31.0065 18.5454 31.1263 18.7246C31.2461 18.9039 31.31 19.1147 31.31 19.3303C31.31 19.4735 31.2818 19.6153 31.227 19.7475C31.1722 19.8798 31.0919 20 30.9906 20.1012C30.8893 20.2025 30.7691 20.2828 30.6368 20.3375C30.5045 20.3923 30.3627 20.4205 30.2196 20.4205Z" fill="#333333"/>
</g>
</g>
</svg>
