<svg width="50" height="50" viewBox="0 0 50 50" fill="none" xmlns="http://www.w3.org/2000/svg">
<circle cx="25" cy="25" r="24.25" stroke="#333333" stroke-width="1.5"/>
<path d="M35.7091 35.7148V35.7139H35.7145V27.855C35.7145 24.0104 34.8868 21.0488 30.3922 21.0488C28.2315 21.0488 26.7815 22.2345 26.1895 23.3586H26.127V21.4078H21.8655V35.7139H26.3029V28.63C26.3029 26.7648 26.6565 24.9613 28.9663 24.9613C31.2422 24.9613 31.2761 27.0898 31.2761 28.7497V35.7148H35.7091Z" fill="#333333"/>
<path d="M14.6401 21.4082H19.083V35.7143H14.6401V21.4082Z" fill="#333333"/>
<path d="M16.8588 14.2861C15.4383 14.2861 14.2856 15.4388 14.2856 16.8593C14.2856 18.2798 15.4383 19.4566 16.8588 19.4566C18.2794 19.4566 19.432 18.2798 19.432 16.8593C19.4311 15.4388 18.2785 14.2861 16.8588 14.2861V14.2861Z" fill="#333333"/>
</svg>
