<svg width="50" height="50" viewBox="0 0 50 50" fill="none" xmlns="http://www.w3.org/2000/svg">
<g id="Group 549">
<circle id="Ellipse 55" cx="25" cy="25" r="24.25" stroke="#333333" stroke-width="1.5"/>
<path id="Vector" d="M16 14.5342V36.4647C16.0001 36.5123 16.0135 36.5588 16.0384 36.5983C16.0634 36.6378 16.0987 36.6687 16.1401 36.687C16.1815 36.7053 16.2271 36.7102 16.2711 36.7011C16.3151 36.6921 16.3556 36.6694 16.3875 36.636L27.1479 25.5L16.3875 14.3629C16.3556 14.3295 16.3151 14.3068 16.2711 14.2977C16.2271 14.2887 16.1815 14.2936 16.1401 14.3119C16.0987 14.3302 16.0634 14.361 16.0384 14.4006C16.0135 14.4401 16.0001 14.4866 16 14.5342ZM31.6596 20.9242L18.1675 13.0359L18.1591 13.0309C17.9267 12.8969 17.7058 13.2306 17.8962 13.4248L28.4725 24.1568L31.6596 20.9242ZM17.8972 37.5752C17.7058 37.7694 17.9267 38.1031 18.1602 37.9691L18.1686 37.9641L31.6596 30.0758L28.4725 26.8421L17.8972 37.5752ZM37.1063 24.1049L33.3387 21.9029L29.7961 25.5L33.3387 29.0954L37.1063 26.8951C38.1312 26.2941 38.1312 24.7059 37.1063 24.1049Z" fill="#333333"/>
</g>
</svg>
