<svg width="30" height="30" viewBox="0 0 30 30" fill="none" xmlns="http://www.w3.org/2000/svg">
<g clip-path="url(#clip0_3339_6623)">
<path d="M29.7426 20.5889L27.4189 18.2652V10.2946L28.9359 9.74771C29.2842 9.6221 29.5164 9.29184 29.5167 8.92156C29.517 8.5514 29.2852 8.22067 28.9371 8.09465L15.0576 3.06813C14.8643 2.99812 14.6524 2.99812 14.4591 3.06813L0.579618 8.09465C0.232835 8.22026 0.00141153 8.54894 5.41269e-06 8.91775C-0.00128353 9.28656 0.227738 9.61694 0.573525 9.74507L5.69583 11.6426V17.4344C5.69583 17.6141 5.7509 17.7896 5.85372 17.937C5.91026 18.0181 6.44581 18.7494 7.81701 19.4396C9.54929 20.3116 11.8213 20.7538 14.5699 20.7538C17.3166 20.7538 19.6001 20.3126 21.3571 19.4422C22.7418 18.7563 23.2952 18.0326 23.3538 17.9524C23.4634 17.802 23.5226 17.6207 23.5226 17.4345V11.6993L25.6613 10.9282V18.2652L23.3376 20.5889C23.1728 20.7537 23.0802 20.9772 23.0802 21.2103C23.0802 21.4434 23.1727 21.6669 23.3376 21.8317L25.6613 24.1554V26.105C25.6613 26.5903 26.0548 26.9838 26.5401 26.9838C27.0255 26.9838 27.419 26.5903 27.419 26.105V24.1554L29.7426 21.8317C30.0858 21.4886 30.0858 20.9321 29.7426 20.5889ZM14.7584 4.82912L26.0519 8.9191L14.5741 13.0571L3.43391 8.93029L14.7584 4.82912ZM21.7649 17.0841C18.7605 19.7875 9.83297 19.4775 7.45347 17.0929V12.2937L14.2646 14.8169C14.3727 14.834 14.4748 14.9272 14.868 14.8196L21.7649 12.3331L21.7649 17.0841ZM26.5401 22.5486L25.2018 21.2103L26.5401 19.872L27.8784 21.2103L26.5401 22.5486Z" fill="#333333"/>
</g>
<defs>
<clipPath id="clip0_3339_6623">
<rect width="30" height="30" fill="white"/>
</clipPath>
</defs>
</svg>
