<svg width="50" height="50" viewBox="0 0 50 50" fill="none" xmlns="http://www.w3.org/2000/svg">
<circle cx="25" cy="25" r="24.25" stroke="#333333" stroke-width="1.5"/>
<path d="M35.7142 18.4899C34.9173 18.8394 34.0682 19.0711 33.183 19.1836C34.0937 18.6399 34.7888 17.7854 35.1156 16.7555C34.2664 17.2617 33.3289 17.6193 32.3298 17.8189C31.5236 16.9604 30.3745 16.4287 29.1209 16.4287C26.6888 16.4287 24.7307 18.4028 24.7307 20.8229C24.7307 21.1711 24.7602 21.5059 24.8325 21.8247C21.1803 21.6466 17.9486 19.8961 15.7776 17.2296C15.3986 17.8872 15.1763 18.6399 15.1763 19.4501C15.1763 20.9716 15.9598 22.3202 17.1276 23.101C16.4218 23.0876 15.7294 22.8827 15.1428 22.56C15.1428 22.5734 15.1428 22.5908 15.1428 22.6082C15.1428 24.743 16.6656 26.5162 18.6624 26.9247C18.3048 27.0225 17.9151 27.0693 17.5106 27.0693C17.2294 27.0693 16.9455 27.0533 16.6789 26.9943C17.2481 28.7341 18.8633 30.0131 20.7839 30.0546C19.2892 31.2238 17.3914 31.9283 15.337 31.9283C14.9767 31.9283 14.6312 31.9122 14.2856 31.868C16.2316 33.1229 18.5379 33.8394 21.0249 33.8394C29.1089 33.8394 33.5285 27.143 33.5285 21.3385C33.5285 21.1443 33.5218 20.9568 33.5124 20.7707C34.3843 20.1519 35.1169 19.3792 35.7142 18.4899Z" fill="#333333"/>
</svg>
