<svg width="60" height="60" viewBox="0 0 60 60" fill="none" xmlns="http://www.w3.org/2000/svg">
<rect width="60" height="60" rx="30" fill="#FAF6F0"/>
<path d="M42.5 31.25C42.1685 31.25 41.8505 31.3817 41.6161 31.6161C41.3817 31.8505 41.25 32.1685 41.25 32.5V37.7662C41.249 38.6899 40.8817 39.5754 40.2285 40.2285C39.5754 40.8817 38.6899 41.249 37.7663 41.25H22.2338C21.3101 41.249 20.4246 40.8817 19.7715 40.2285C19.1183 39.5754 18.751 38.6899 18.75 37.7662V32.5C18.75 32.1685 18.6183 31.8505 18.3839 31.6161C18.1495 31.3817 17.8315 31.25 17.5 31.25C17.1685 31.25 16.8505 31.3817 16.6161 31.6161C16.3817 31.8505 16.25 32.1685 16.25 32.5V37.7662C16.2517 39.3527 16.8826 40.8738 18.0044 41.9956C19.1262 43.1174 20.6473 43.7483 22.2338 43.75H37.7663C39.3527 43.7483 40.8738 43.1174 41.9956 41.9956C43.1174 40.8738 43.7483 39.3527 43.75 37.7662V32.5C43.75 32.1685 43.6183 31.8505 43.3839 31.6161C43.1495 31.3817 42.8315 31.25 42.5 31.25Z" fill="#F27F0C"/>
<path d="M23.384 25.8835L28.7503 20.5172V36.2497C28.7503 36.5813 28.882 36.8992 29.1164 37.1336C29.3508 37.368 29.6687 37.4997 30.0003 37.4997C30.3318 37.4997 30.6497 37.368 30.8841 37.1336C31.1186 36.8992 31.2503 36.5813 31.2503 36.2497V20.5172L36.6165 25.8835C36.8523 26.1112 37.168 26.2372 37.4958 26.2343C37.8235 26.2315 38.137 26.1 38.3688 25.8683C38.6005 25.6365 38.732 25.323 38.7349 24.9952C38.7377 24.6675 38.6117 24.3517 38.384 24.116L30.884 16.616C30.6496 16.3816 30.3317 16.25 30.0003 16.25C29.6688 16.25 29.3509 16.3816 29.1165 16.616L21.6165 24.116C21.3888 24.3517 21.2628 24.6675 21.2657 24.9952C21.2685 25.323 21.4 25.6365 21.6317 25.8683C21.8635 26.1 22.177 26.2315 22.5048 26.2343C22.8325 26.2372 23.1483 26.1112 23.384 25.8835Z" fill="#F27F0C"/>
</svg>
