<svg width="30" height="30" viewBox="0 0 30 30" fill="none" xmlns="http://www.w3.org/2000/svg">
<g clip-path="url(#clip0_3339_6644)">
<mask id="path-1-inside-1_3339_6644" fill="white">
<path d="M25.496 9.99567H23.497C23.3265 9.99705 23.1575 10.0275 22.9973 10.0856V5.99778C22.9289 2.62449 20.144 -0.0575916 16.7706 0.00094006H13.0025C9.72665 -0.0351659 7.04181 2.59126 7.00571 5.8671C7.00521 5.91064 7.00521 5.95418 7.00571 5.99778V10.0856C6.84548 10.0275 6.67644 9.99705 6.50597 9.99567H4.50702C3.67902 9.99567 3.00781 10.6669 3.00781 11.4949C3.00781 12.3229 3.67902 12.9941 4.50702 12.9941H5.00676V16.0675C5.00951 16.8529 5.64555 17.489 6.43101 17.4917H7.07567C7.30292 18.3719 8.09557 18.988 9.00465 18.9909H12.5028V20.4901C12.5028 20.7661 12.7266 20.9899 13.0025 20.9899H13.5023V22.4891C13.5028 22.5362 13.4689 22.5766 13.4223 22.584L9.2845 23.2737C8.26092 23.4444 7.44935 24.2301 7.24558 25.2476L7.04568 26.2471C6.07719 26.7771 5.72169 27.9918 6.25167 28.9602C6.78164 29.9287 7.99631 30.2842 8.9648 29.7543C9.61021 29.4011 10.0095 28.7219 10.0041 27.9862C10.0034 27.8569 9.99007 27.728 9.96415 27.6014L10.3789 25.9373L13.4773 25.5475V26.6719C12.7471 27.4999 12.8263 28.763 13.6543 29.4933C14.4823 30.2235 15.7455 30.1442 16.4757 29.3162C17.142 28.5607 17.142 27.4274 16.4757 26.6719V25.5525L19.5741 25.9423L19.9989 27.6064C19.9866 27.7327 19.9866 27.8599 19.9989 27.9862C19.9936 29.0902 20.8843 29.9894 21.9882 29.9946C23.0922 29.9999 23.9914 29.1092 23.9967 28.0052C24.0002 27.2713 23.6011 26.5944 22.9573 26.2421L22.7574 25.2426C22.5536 24.2251 21.7421 23.4394 20.7185 23.2687L16.5807 22.579C16.536 22.5719 16.5025 22.5343 16.5007 22.4891V20.9899H17.0004C17.2764 20.9899 17.5002 20.7661 17.5002 20.4901V18.9909H20.9983C21.9074 18.988 22.7001 18.3719 22.9273 17.4917H23.572C24.3574 17.489 24.9935 16.8529 24.9962 16.0675V12.9941H25.496C26.324 12.9941 26.9952 12.3229 26.9952 11.4949C26.9952 10.6669 26.3239 9.99567 25.496 9.99567ZM7.00571 16.4923H6.43101C6.19644 16.4923 6.00623 16.3021 6.00623 16.0675V12.9941H6.50597C6.67644 12.9927 6.84548 12.9623 7.00571 12.9041V16.4923ZM6.50597 11.9946H4.50702C4.23104 11.9946 4.00729 11.7709 4.00729 11.4949C4.00729 11.2189 4.23104 10.9951 4.50702 10.9951H6.50597C6.78195 10.9951 7.00571 11.2189 7.00571 11.4949C7.00571 11.7709 6.78195 11.9946 6.50597 11.9946ZM8.00518 28.9857C7.45316 28.9857 7.00571 28.5382 7.00571 27.9862C7.00571 27.4342 7.45316 26.9867 8.00518 26.9867C8.5572 26.9867 9.00465 27.4342 9.00465 27.9862C9.00465 28.5382 8.55714 28.9857 8.00518 28.9857ZM15.0015 28.9857C14.4495 28.9857 14.002 28.5382 14.002 27.9862C14.002 27.4342 14.4495 26.9867 15.0015 26.9867C15.5535 26.9867 16.001 27.4342 16.001 27.9862C16.001 28.5382 15.5534 28.9857 15.0015 28.9857ZM22.9973 27.9862C22.9973 28.5382 22.5498 28.9857 21.9978 28.9857C21.4458 28.9857 20.9983 28.5382 20.9983 27.9862C20.9983 27.4342 21.4458 26.9867 21.9978 26.9867C22.5498 26.9867 22.9973 27.4342 22.9973 27.9862ZM20.5536 24.2532C21.1681 24.3552 21.6555 24.8267 21.7779 25.4375L21.8879 25.9872C21.4732 26.0124 21.0767 26.1661 20.7535 26.427L20.4986 25.3676C20.4483 25.1667 20.2794 25.0176 20.0738 24.9928L16.0759 24.493C15.9349 24.4758 15.7931 24.5194 15.6861 24.613C15.5727 24.7049 15.5052 24.8418 15.5012 24.9878V26.0572C15.1746 25.9639 14.8284 25.9639 14.5018 26.0572V24.9878C14.5016 24.8442 14.4397 24.7077 14.3318 24.613C14.2249 24.5194 14.0831 24.4758 13.942 24.493L9.94416 24.9928C9.73858 25.0176 9.56967 25.1667 9.51938 25.3676L9.24952 26.437C8.9275 26.1725 8.5309 26.0152 8.11512 25.9872L8.22506 25.4275C8.3475 24.8167 8.83487 24.3452 9.44942 24.2432L13.5872 23.5535C14.1105 23.4684 14.4964 23.0191 14.5018 22.4891V20.9899H15.5012V22.4891C15.5017 23.0229 15.8888 23.4778 16.4157 23.5635L20.5536 24.2532ZM16.5007 19.9904H13.5023V18.9909H16.5007V19.9904ZM20.6385 17.9915H17.0004H9.36446C8.67707 18.002 8.0917 17.4941 8.00518 16.8121C8.09307 16.3312 8.51591 15.9845 9.00465 15.9925H20.9983C21.4871 15.9845 21.9099 16.3312 21.9978 16.8121C21.9113 17.4941 21.3258 18.002 20.6385 17.9915ZM21.9978 15.2729C21.696 15.0912 21.3506 14.9945 20.9983 14.993H9.00465C8.65234 14.9945 8.30702 15.0912 8.00518 15.2729V5.99778C7.97463 3.26834 10.1625 1.03096 12.892 1.00041C12.9288 0.999976 12.9657 0.999976 13.0025 1.00041H16.7706C19.5921 0.941757 21.9296 3.17645 21.9978 5.99778V15.2729ZM23.9967 16.0675C23.9967 16.302 23.8066 16.4923 23.572 16.4923H22.9973V12.9041C23.1575 12.9623 23.3265 12.9927 23.497 12.9941H23.9967V16.0675ZM25.496 11.9946H23.497C23.221 11.9946 22.9973 11.7709 22.9973 11.4949C22.9973 11.2189 23.221 10.9951 23.497 10.9951H25.496C25.7719 10.9951 25.9957 11.2189 25.9957 11.4949C25.9957 11.7709 25.7719 11.9946 25.496 11.9946Z"/>
</mask>
<path d="M25.496 9.99567H23.497C23.3265 9.99705 23.1575 10.0275 22.9973 10.0856V5.99778C22.9289 2.62449 20.144 -0.0575916 16.7706 0.00094006H13.0025C9.72665 -0.0351659 7.04181 2.59126 7.00571 5.8671C7.00521 5.91064 7.00521 5.95418 7.00571 5.99778V10.0856C6.84548 10.0275 6.67644 9.99705 6.50597 9.99567H4.50702C3.67902 9.99567 3.00781 10.6669 3.00781 11.4949C3.00781 12.3229 3.67902 12.9941 4.50702 12.9941H5.00676V16.0675C5.00951 16.8529 5.64555 17.489 6.43101 17.4917H7.07567C7.30292 18.3719 8.09557 18.988 9.00465 18.9909H12.5028V20.4901C12.5028 20.7661 12.7266 20.9899 13.0025 20.9899H13.5023V22.4891C13.5028 22.5362 13.4689 22.5766 13.4223 22.584L9.2845 23.2737C8.26092 23.4444 7.44935 24.2301 7.24558 25.2476L7.04568 26.2471C6.07719 26.7771 5.72169 27.9918 6.25167 28.9602C6.78164 29.9287 7.99631 30.2842 8.9648 29.7543C9.61021 29.4011 10.0095 28.7219 10.0041 27.9862C10.0034 27.8569 9.99007 27.728 9.96415 27.6014L10.3789 25.9373L13.4773 25.5475V26.6719C12.7471 27.4999 12.8263 28.763 13.6543 29.4933C14.4823 30.2235 15.7455 30.1442 16.4757 29.3162C17.142 28.5607 17.142 27.4274 16.4757 26.6719V25.5525L19.5741 25.9423L19.9989 27.6064C19.9866 27.7327 19.9866 27.8599 19.9989 27.9862C19.9936 29.0902 20.8843 29.9894 21.9882 29.9946C23.0922 29.9999 23.9914 29.1092 23.9967 28.0052C24.0002 27.2713 23.6011 26.5944 22.9573 26.2421L22.7574 25.2426C22.5536 24.2251 21.7421 23.4394 20.7185 23.2687L16.5807 22.579C16.536 22.5719 16.5025 22.5343 16.5007 22.4891V20.9899H17.0004C17.2764 20.9899 17.5002 20.7661 17.5002 20.4901V18.9909H20.9983C21.9074 18.988 22.7001 18.3719 22.9273 17.4917H23.572C24.3574 17.489 24.9935 16.8529 24.9962 16.0675V12.9941H25.496C26.324 12.9941 26.9952 12.3229 26.9952 11.4949C26.9952 10.6669 26.3239 9.99567 25.496 9.99567ZM7.00571 16.4923H6.43101C6.19644 16.4923 6.00623 16.3021 6.00623 16.0675V12.9941H6.50597C6.67644 12.9927 6.84548 12.9623 7.00571 12.9041V16.4923ZM6.50597 11.9946H4.50702C4.23104 11.9946 4.00729 11.7709 4.00729 11.4949C4.00729 11.2189 4.23104 10.9951 4.50702 10.9951H6.50597C6.78195 10.9951 7.00571 11.2189 7.00571 11.4949C7.00571 11.7709 6.78195 11.9946 6.50597 11.9946ZM8.00518 28.9857C7.45316 28.9857 7.00571 28.5382 7.00571 27.9862C7.00571 27.4342 7.45316 26.9867 8.00518 26.9867C8.5572 26.9867 9.00465 27.4342 9.00465 27.9862C9.00465 28.5382 8.55714 28.9857 8.00518 28.9857ZM15.0015 28.9857C14.4495 28.9857 14.002 28.5382 14.002 27.9862C14.002 27.4342 14.4495 26.9867 15.0015 26.9867C15.5535 26.9867 16.001 27.4342 16.001 27.9862C16.001 28.5382 15.5534 28.9857 15.0015 28.9857ZM22.9973 27.9862C22.9973 28.5382 22.5498 28.9857 21.9978 28.9857C21.4458 28.9857 20.9983 28.5382 20.9983 27.9862C20.9983 27.4342 21.4458 26.9867 21.9978 26.9867C22.5498 26.9867 22.9973 27.4342 22.9973 27.9862ZM20.5536 24.2532C21.1681 24.3552 21.6555 24.8267 21.7779 25.4375L21.8879 25.9872C21.4732 26.0124 21.0767 26.1661 20.7535 26.427L20.4986 25.3676C20.4483 25.1667 20.2794 25.0176 20.0738 24.9928L16.0759 24.493C15.9349 24.4758 15.7931 24.5194 15.6861 24.613C15.5727 24.7049 15.5052 24.8418 15.5012 24.9878V26.0572C15.1746 25.9639 14.8284 25.9639 14.5018 26.0572V24.9878C14.5016 24.8442 14.4397 24.7077 14.3318 24.613C14.2249 24.5194 14.0831 24.4758 13.942 24.493L9.94416 24.9928C9.73858 25.0176 9.56967 25.1667 9.51938 25.3676L9.24952 26.437C8.9275 26.1725 8.5309 26.0152 8.11512 25.9872L8.22506 25.4275C8.3475 24.8167 8.83487 24.3452 9.44942 24.2432L13.5872 23.5535C14.1105 23.4684 14.4964 23.0191 14.5018 22.4891V20.9899H15.5012V22.4891C15.5017 23.0229 15.8888 23.4778 16.4157 23.5635L20.5536 24.2532ZM16.5007 19.9904H13.5023V18.9909H16.5007V19.9904ZM20.6385 17.9915H17.0004H9.36446C8.67707 18.002 8.0917 17.4941 8.00518 16.8121C8.09307 16.3312 8.51591 15.9845 9.00465 15.9925H20.9983C21.4871 15.9845 21.9099 16.3312 21.9978 16.8121C21.9113 17.4941 21.3258 18.002 20.6385 17.9915ZM21.9978 15.2729C21.696 15.0912 21.3506 14.9945 20.9983 14.993H9.00465C8.65234 14.9945 8.30702 15.0912 8.00518 15.2729V5.99778C7.97463 3.26834 10.1625 1.03096 12.892 1.00041C12.9288 0.999976 12.9657 0.999976 13.0025 1.00041H16.7706C19.5921 0.941757 21.9296 3.17645 21.9978 5.99778V15.2729ZM23.9967 16.0675C23.9967 16.302 23.8066 16.4923 23.572 16.4923H22.9973V12.9041C23.1575 12.9623 23.3265 12.9927 23.497 12.9941H23.9967V16.0675ZM25.496 11.9946H23.497C23.221 11.9946 22.9973 11.7709 22.9973 11.4949C22.9973 11.2189 23.221 10.9951 23.497 10.9951H25.496C25.7719 10.9951 25.9957 11.2189 25.9957 11.4949C25.9957 11.7709 25.7719 11.9946 25.496 11.9946Z" fill="black" stroke="black" stroke-width="2" mask="url(#path-1-inside-1_3339_6644)"/>
</g>
<defs>
<clipPath id="clip0_3339_6644">
<rect width="30" height="30" fill="white"/>
</clipPath>
</defs>
</svg>
