<svg width="50" height="50" viewBox="0 0 50 50" fill="none" xmlns="http://www.w3.org/2000/svg">
<g id="Group 324">
<circle id="Ellipse 55" cx="25" cy="25" r="24.25" stroke="#333333" stroke-width="1.5"/>
<g id="Group 323">
<path id="Vector" d="M40.0606 17.3627C39.7069 16.0478 38.6702 15.0112 37.3555 14.6572C34.9536 14 25.3461 14 25.3461 14C25.3461 14 15.739 14 13.3372 14.6323C12.0478 14.9859 10.9858 16.048 10.6321 17.3627C10 19.7643 10 24.745 10 24.745C10 24.745 10 29.7508 10.6321 32.1273C10.9861 33.4421 12.0225 34.4786 13.3374 34.8326C15.7643 35.49 25.3465 35.49 25.3465 35.49C25.3465 35.49 34.9536 35.49 37.3555 34.8577C38.6704 34.5039 39.7069 33.4673 40.061 32.1526C40.6929 29.7508 40.6929 24.7703 40.6929 24.7703C40.6929 24.7703 40.7181 19.7643 40.0606 17.3627ZM22.2873 29.3463V20.1437L30.2764 24.745L22.2873 29.3463Z" fill="#333333"/>
</g>
</g>
</svg>
