<svg width="51" height="50" viewBox="0 0 51 50" fill="none" xmlns="http://www.w3.org/2000/svg">
<rect x="1.99609" y="1" width="48" height="48" rx="24" fill="#F27F0C" stroke="#F27F0C" stroke-width="2"/>
<path d="M30.1467 27.919H29.2321L28.908 27.6064C30.0817 26.245 30.7268 24.507 30.7255 22.7095C30.7255 21.2212 30.2842 19.7663 29.4574 18.5289C28.6305 17.2914 27.4553 16.3269 26.0803 15.7574C24.7053 15.1878 23.1923 15.0388 21.7326 15.3292C20.2729 15.6195 18.9321 16.3362 17.8798 17.3886C16.8274 18.4409 16.1107 19.7817 15.8204 21.2414C15.53 22.7011 15.679 24.2141 16.2486 25.5891C16.8181 26.9641 17.7826 28.1393 19.0201 28.9662C20.2575 29.793 21.7124 30.2343 23.2007 30.2343C25.0645 30.2343 26.7779 29.5513 28.0976 28.4168L28.4102 28.7409V29.6555L34.1986 35.4323L35.9235 33.7074L30.1467 27.919ZM23.2007 27.919C20.3181 27.919 17.9911 25.5921 17.9911 22.7095C17.9911 19.8268 20.3181 17.4999 23.2007 17.4999C26.0833 17.4999 28.4102 19.8268 28.4102 22.7095C28.4102 25.5921 26.0833 27.919 23.2007 27.919Z" fill="#FAF6F0"/>
</svg>
