<svg width="220" height="57" viewBox="0 0 220 57" fill="none" xmlns="http://www.w3.org/2000/svg">
<g clip-path="url(#clip0_3150_2491)">
<path fill-rule="evenodd" clip-rule="evenodd" d="M45.6993 10.2502H45.7168L45.7255 24.5884L42.1467 28.155L45.7277 31.7195L45.732 46.062H45.7124L27.7445 28.1659L45.6993 10.2502ZM29.0552 10.2546H42.5938L24.6434 28.1681L42.6113 46.062L29.077 46.0685L11.1092 28.1702L29.0552 10.2546ZM23.6053 43.3604L23.6097 46.0794H10.2499L10.239 30.0481L23.6053 43.3626V43.3604ZM10.2325 10.2654L23.5922 10.2611V12.9735L10.2368 26.3032L10.2325 10.2654ZM28.1829 0.045901C43.7191 0.0393806 56.3897 12.6671 56.4007 28.1485C56.4007 43.6364 43.7475 56.275 28.2112 56.2793C12.6794 56.2837 7.03511e-06 43.6582 7.03511e-06 28.1746C-0.0108971 12.6888 12.6554 0.0567682 28.1829 0.045901ZM28.1916 1.5847C42.8686 1.58035 54.8501 13.5125 54.8588 28.1485C54.8632 42.7931 42.8904 54.734 28.2112 54.7405C13.5212 54.7471 1.54622 42.8192 1.53749 28.1746C1.53095 13.5364 13.5059 1.58904 28.1894 1.58252" fill="#F38120"/>
<path d="M163.776 50.4348C163.674 50.3587 163.538 50.3326 163.421 50.3674C163.299 50.4 163.196 50.4913 163.15 50.6087C162.769 51.5541 162.106 52.3605 161.179 53.006C160.248 53.6558 159.255 54.021 158.239 54.0905H157.94C156.054 54.0905 154.743 53.432 153.932 52.0736C153.092 50.6674 152.667 49.096 152.667 47.4029C152.667 47.1833 152.674 46.966 152.689 46.753C152.704 46.54 152.726 46.3226 152.756 46.0966C152.916 44.7447 153.384 43.4885 154.15 42.3605C154.881 41.2846 155.969 40.7608 157.48 40.7608C158.991 40.7608 160.106 41.2129 160.887 42.1062C161.707 43.0429 162.291 44.2122 162.627 45.5859C162.673 45.7706 162.836 45.8988 163.026 45.8988H163.739C163.85 45.8988 163.957 45.8532 164.033 45.7728C164.11 45.6924 164.153 45.5837 164.149 45.4728L163.942 39.924C163.933 39.7024 163.754 39.5306 163.532 39.5306H162.886C162.699 39.5306 162.533 39.6589 162.487 39.8414C162.476 39.8827 162.461 39.924 162.441 39.9697C162.4 40.0653 162.367 40.1544 162.359 40.2022C162.322 40.3131 162.278 40.4239 162.23 40.5283C161.56 40.1197 160.854 39.7958 160.125 39.5632C159.251 39.285 158.331 39.1416 157.388 39.1416C154.959 39.1416 152.964 40.0066 151.454 41.715C149.958 43.4059 149.199 45.4446 149.199 47.7723C149.199 50.1001 149.963 52.1257 151.465 53.6819C152.972 55.2425 154.95 56.0358 157.34 56.0358H157.681C159.138 55.9706 160.533 55.5511 161.829 54.786C163.139 54.0123 164.116 52.9234 164.734 51.5498C164.812 51.3737 164.76 51.1716 164.605 51.0564L163.776 50.437V50.4348Z" fill="#F38120"/>
<path d="M176.211 39.1509C173.779 39.1509 171.725 39.942 170.105 41.5025C168.48 43.0652 167.656 45.1126 167.656 47.5882C167.656 50.0637 168.484 52.0481 170.115 53.626C171.742 55.1996 173.792 56.0059 176.211 56.0233C176.255 56.0233 176.296 56.0146 176.337 55.9994C178.712 55.9733 180.73 55.1778 182.328 53.639C183.962 52.0676 184.788 50.0311 184.788 47.5882C184.788 45.1452 183.964 43.0674 182.339 41.5025C180.717 39.942 178.656 39.1509 176.209 39.1509M172.357 42.6262C173.084 41.333 174.344 40.7027 176.209 40.7027C178.073 40.7027 179.353 41.3308 180.071 42.624C180.826 43.9824 181.238 45.4995 181.297 47.1274V47.9424C181.253 49.579 180.845 51.1005 180.082 52.4675C179.356 53.7694 178.089 54.4019 176.207 54.4019C174.324 54.4019 173.018 53.7586 172.299 52.4371C171.544 51.0505 171.147 49.4943 171.116 47.8164V47.1426C171.175 45.5038 171.59 43.9846 172.353 42.6262" fill="#F38120"/>
<path d="M203.849 53.9603C203.225 53.9603 202.743 53.769 202.377 53.38C201.954 52.9279 201.568 52.4259 201.23 51.8847C201.212 51.8564 201.193 51.8325 201.171 51.8108C201.147 51.7869 201.125 51.7586 201.103 51.7217C201.07 51.6717 201.042 51.6195 200.994 51.5304C200.935 51.4413 200.879 51.3565 200.826 51.2739C200.772 51.1892 200.713 51.0979 200.645 50.9979C200.508 50.8023 200.379 50.6132 200.257 50.4306C200.135 50.2502 200.024 50.0764 199.908 49.8981C199.448 49.2331 198.94 48.6462 198.397 48.155C198.181 47.9594 197.932 47.7856 197.653 47.6421C198.209 47.4443 198.733 47.1531 199.215 46.7727C200.196 45.999 200.693 44.9449 200.693 43.643C200.693 42.9953 200.541 42.3889 200.24 41.8412C199.943 41.3022 199.546 40.8436 199.055 40.4719C198.654 40.1698 198.194 39.9373 197.69 39.7786C197.208 39.6265 196.711 39.5178 196.212 39.4526C195.941 39.42 195.666 39.4004 195.394 39.3917C195.128 39.383 194.87 39.3809 194.622 39.3809H188.088C187.861 39.3809 187.678 39.5656 187.678 39.7895V40.5002C187.678 40.7349 187.927 40.9088 188.14 40.9088C188.803 40.937 189.309 41.0283 189.643 41.1805C189.857 41.2783 189.979 41.6977 189.979 42.3346V52.5389C189.979 53.167 189.857 53.5973 189.652 53.693C189.329 53.8451 188.823 53.9364 188.149 53.9646H188.088C188.066 53.9646 188.044 53.9646 188.023 53.969L187.935 53.9733V53.9929C187.785 54.0538 187.678 54.2016 187.678 54.3733V55.084C187.678 55.31 187.861 55.4926 188.088 55.4926H194.99C195.217 55.4926 195.4 55.3078 195.4 55.084V54.3733C195.4 54.1472 195.215 53.9646 194.988 53.9646H194.89C194.24 53.9364 193.745 53.8495 193.418 53.7017C193.217 53.6126 193.097 53.1757 193.097 52.5389V48.2702H193.976C194.279 48.2702 194.567 48.3202 194.835 48.418C195.084 48.5071 195.311 48.668 195.509 48.8897C195.86 49.2831 196.19 49.7264 196.491 50.2089C196.803 50.711 197.112 51.2196 197.402 51.7108C197.428 51.763 197.461 51.8173 197.498 51.8651C197.507 51.8781 197.516 51.889 197.529 51.9151C197.902 52.565 198.288 53.1953 198.68 53.7929C199.092 54.4189 199.564 54.9601 200.083 55.3948C200.157 55.4578 200.25 55.4904 200.346 55.4904H203.844C204.071 55.4904 204.254 55.3057 204.254 55.0818V54.3711C204.254 54.145 204.069 53.9625 203.844 53.9625M197.359 43.7321C197.359 44.7167 197.149 45.4687 196.737 45.9729C196.347 46.4511 195.655 46.6945 194.685 46.6945H193.093V40.9088H194.338C195.293 40.9088 196.048 41.1348 196.582 41.5804C197.095 42.0085 197.357 42.7323 197.357 43.7321" fill="#F38120"/>
<path d="M218.094 40.1874C216.947 39.694 215.666 39.4288 214.301 39.3984C214.077 39.3832 213.85 39.3745 213.617 39.3745H207.554C207.327 39.3745 207.144 39.5593 207.144 39.7831V40.4938C207.144 40.7286 207.392 40.9024 207.606 40.9024C208.269 40.9307 208.775 41.022 209.109 41.1741C209.322 41.2719 209.445 41.6936 209.445 42.3282V52.5325C209.445 53.1606 209.322 53.591 209.117 53.6866C208.795 53.8388 208.289 53.9279 207.615 53.9583H207.554C207.532 53.9583 207.51 53.9583 207.488 53.9626L207.401 53.967V53.9866C207.251 54.0474 207.144 54.1952 207.144 54.3669V55.0776C207.144 55.3037 207.329 55.4862 207.554 55.4862H214.456C214.683 55.4862 214.866 55.3015 214.866 55.0776V54.3669C214.866 54.1409 214.683 53.9583 214.454 53.9583H214.358C213.708 53.93 213.213 53.8431 212.886 53.6953C212.685 53.6062 212.565 53.1715 212.565 52.5325V48.2182H214.846C215.014 48.2182 215.18 48.2095 215.322 48.1943C215.738 48.1791 216.166 48.1291 216.591 48.0509C217.04 47.9661 217.466 47.8118 217.854 47.5923C218.55 47.2054 219.086 46.6686 219.452 45.9992C219.814 45.3363 219.998 44.6125 219.998 43.8431C219.998 41.9609 219.356 40.7307 218.094 40.1874ZM216.691 43.7518C216.691 44.6538 216.454 45.3819 215.987 45.9144C215.533 46.4295 214.84 46.6925 213.926 46.6925H212.565V40.8698C212.663 40.8633 212.77 40.8611 212.919 40.859C213.023 40.8459 213.126 40.8394 213.226 40.8394H213.584C214.659 40.8394 215.459 41.0568 215.963 41.4871C216.447 41.9001 216.694 42.6629 216.694 43.7562" fill="#F38120"/>
<path fill-rule="evenodd" clip-rule="evenodd" d="M201.528 29.5653V29.0306C202.66 28.6633 203.437 27.9917 203.86 27.0115C204.287 26.0356 204.496 23.9491 204.496 20.7607V12.6233C204.496 10.702 204.318 9.47403 203.964 8.94588C203.611 8.41991 202.92 8.11345 201.895 8.01782V7.49185C203.949 7.2419 205.742 6.98326 207.292 6.71376C208.839 6.4399 210.125 6.15301 211.172 5.86177V11.3693C212.118 9.3458 213.257 7.81352 214.576 6.80287C215.898 5.78135 217.405 5.26407 219.102 5.26407C219.337 5.26407 219.525 5.26407 219.655 5.27929C219.775 5.28363 219.891 5.29668 219.998 5.31189L217.466 12.6733H216.879C216.631 12.3777 216.36 12.1539 216.053 12.0039C215.741 11.8431 215.394 11.7714 215.017 11.7714C213.761 11.7714 212.808 12.3256 212.151 13.434C211.493 14.549 211.172 16.1421 211.172 18.2286V20.3847C211.172 23.8144 211.384 26.0356 211.796 27.0441C212.225 28.0591 213.004 28.722 214.14 29.0306L214.114 29.5653C213.377 29.5175 212.552 29.4849 211.656 29.461C210.762 29.4414 209.445 29.4306 207.728 29.4306C206.191 29.4306 204.974 29.4414 204.082 29.461C203.192 29.4849 202.34 29.5197 201.524 29.5653M200.512 28.7438L200.497 29.5175C198.94 29.4871 197.766 29.4632 196.984 29.4501C196.207 29.4393 195.477 29.4306 194.818 29.4306H192.772C192.397 28.8546 192.074 28.2656 191.815 27.6549C191.553 27.0441 191.331 26.3986 191.143 25.7205C190.271 27.2245 189.226 28.3178 188.018 28.998C186.797 29.687 185.288 30.0196 183.491 30.0196C180.675 30.0196 178.379 29.3436 176.601 27.9917C174.831 26.6442 173.947 24.9207 173.947 22.8363C173.947 20.3521 175.326 18.4569 178.063 17.1528C180.813 15.8596 184.989 15.1141 190.581 14.9402V14.7446C190.581 12.1148 190.105 10.1108 189.17 8.74375C188.234 7.36579 186.875 6.67681 185.078 6.67681C183.281 6.67681 181.798 7.28755 180.671 8.48511C179.539 9.6892 178.608 11.6453 177.886 14.3491H177.254L175.097 7.63095C176.798 6.8333 178.562 6.2443 180.374 5.84873C182.182 5.45968 184.06 5.2619 186.012 5.2619C188.169 5.2619 190.057 5.51837 191.673 6.03565C193.28 6.54858 194.55 7.31145 195.453 8.30254C196.188 9.05238 196.707 9.95001 197.003 10.9824C197.295 12.017 197.439 13.8948 197.439 16.5964V18.6894C197.439 22.5581 197.666 25.138 198.109 26.4247C198.549 27.7179 199.361 28.4916 200.514 28.7416M190.585 16.2834C190.461 16.2769 190.33 16.266 190.171 16.2617C190.027 16.2486 189.798 16.2443 189.514 16.2443C187.041 16.2443 185.148 16.8029 183.82 17.9222C182.488 19.0372 181.827 20.6499 181.827 22.7472C181.827 24.3556 182.171 25.6292 182.88 26.5899C183.578 27.5592 184.507 28.0417 185.676 28.0417C187.39 28.0417 188.64 27.2332 189.414 25.6162C190.195 23.9948 190.583 21.3606 190.583 17.6962V16.2856L190.585 16.2834ZM126.774 29.5631L126.748 29.0741C127.904 28.7025 128.682 28.0048 129.094 26.9724C129.509 25.9313 129.718 23.5884 129.718 19.9435V12.6212C129.718 10.6998 129.539 9.47185 129.175 8.93719C128.809 8.39383 128.133 8.09389 127.138 8.01782V7.49185C128.887 7.29189 130.499 7.0463 131.986 6.77679C133.46 6.50511 134.797 6.19648 135.988 5.86177V10.9998C136.777 9.0915 137.874 7.64834 139.316 6.6942C140.751 5.73788 142.509 5.2619 144.613 5.2619C146.718 5.2619 148.251 5.76831 149.524 6.78548C150.794 7.79613 151.576 9.21539 151.877 11.0346C152.693 9.1002 153.81 7.65486 155.229 6.71593C156.658 5.77701 158.42 5.30972 160.555 5.30972C163.377 5.30972 165.425 6.17475 166.694 7.91132C167.957 9.64356 168.591 12.469 168.591 16.3725V19.4393C168.591 23.3971 168.807 25.9096 169.239 26.9833C169.662 28.0548 170.462 28.7481 171.651 29.0741L171.627 29.5631C170.883 29.5153 170.063 29.4827 169.16 29.4588C168.249 29.4393 166.932 29.4284 165.194 29.4284C163.647 29.4284 162.417 29.4393 161.525 29.4588C160.62 29.4827 159.77 29.5175 158.943 29.5631V29.0741C160.084 28.7025 160.86 28.0178 161.301 27.0289C161.743 26.0226 161.962 23.9209 161.962 20.7194V16.7942C161.962 13.6231 161.621 11.2997 160.932 9.8283C160.243 8.35905 159.159 7.62226 157.678 7.62226C156.093 7.62226 154.808 8.46338 153.81 10.1348C152.813 11.8148 152.309 14.0361 152.309 16.792V19.9435C152.309 23.6188 152.525 25.977 152.961 27.0289C153.387 28.0635 154.172 28.7481 155.323 29.0741L155.301 29.5631C154.545 29.5153 153.729 29.4827 152.835 29.4588C151.938 29.4393 150.658 29.4284 149.005 29.4284C147.516 29.4284 146.323 29.4393 145.444 29.4588C144.554 29.4827 143.71 29.5175 142.895 29.5631V29.0741C144.033 28.7025 144.814 28.0178 145.256 27.0289C145.693 26.0226 145.913 23.9209 145.913 20.7194V16.7942C145.913 13.5775 145.566 11.2497 144.89 9.82178C144.214 8.38731 143.124 7.67007 141.654 7.67007C140.103 7.67007 138.827 8.50685 137.842 10.1826C136.849 11.8605 136.356 14.0643 136.356 16.7964V19.9478C136.356 23.6057 136.568 25.9596 137.002 27.0072C137.432 28.0461 138.215 28.7394 139.366 29.0785V29.5675C138.609 29.5197 137.794 29.4871 136.899 29.4632C136.012 29.4436 134.699 29.4327 132.983 29.4327C131.432 29.4327 130.206 29.4436 129.315 29.4632C128.429 29.4871 127.587 29.5218 126.783 29.5675M98.8636 12.6255C98.8636 10.7259 98.6848 9.50446 98.3249 8.98718C97.9782 8.45903 97.2825 8.15692 96.2619 8.06999V7.54401C98.277 7.29624 100.054 7.03108 101.596 6.75723C103.136 6.48772 104.427 6.203 105.489 5.90741V18.5394C105.489 21.6562 105.877 23.9144 106.651 25.3315C107.428 26.7333 108.66 27.444 110.354 27.444C112.049 27.444 113.504 26.6377 114.561 25.0293C115.621 23.4188 116.149 21.2584 116.149 18.5394V12.6277C116.149 10.7281 115.97 9.50663 115.621 8.98935C115.257 8.4612 114.572 8.1591 113.547 8.07216V7.54619C115.322 7.30928 117.002 7.05499 118.567 6.78331C120.144 6.51163 121.607 6.21821 122.964 5.90959C122.931 6.95718 122.907 7.95479 122.89 8.90241C122.877 9.84569 122.868 10.7216 122.868 11.5149V18.6981C122.868 22.5668 123.09 25.1467 123.527 26.4334C123.967 27.7266 124.763 28.5003 125.936 28.7503V29.524C124.464 29.4936 123.285 29.4697 122.375 29.4566C121.47 29.4458 120.613 29.4371 119.821 29.4371H117.398C117.119 28.5438 116.91 27.7701 116.753 27.1354C116.587 26.4964 116.469 25.8944 116.371 25.3358C115.606 26.9115 114.535 28.0874 113.155 28.885C111.789 29.6805 110.117 30.0782 108.136 30.0782C105.033 30.0782 102.704 29.1589 101.162 27.3245C99.6312 25.4814 98.8614 22.7103 98.8614 19.0111V12.632L98.8636 12.6255ZM65.9592 29.5675V28.9828C67.2416 28.722 68.1161 28.02 68.5849 26.8789C69.0516 25.7401 69.2828 23.1928 69.2828 19.2176V4.14692C69.2828 3.12975 69.0691 2.34732 68.6438 1.80396C68.2098 1.26277 67.5011 0.862856 66.5066 0.621604V0C67.5469 0.0565095 68.5849 0.0978048 69.6492 0.13258C70.7047 0.152141 71.7886 0.171702 72.9052 0.171702C74.0981 0.171702 75.2605 0.152141 76.3923 0.13258C77.5154 0.0978048 78.6495 0.0565095 79.7639 0V0.621604C78.7781 0.791132 78.0628 1.16062 77.6354 1.71484C77.1949 2.27777 76.9833 3.07977 76.9833 4.14475V13.2602L84.2193 6.98761C85.1026 6.23343 85.7982 5.46838 86.3129 4.69463C86.8385 3.91437 87.1046 3.25581 87.1046 2.71028C87.1046 2.09085 86.8865 1.60183 86.4808 1.23669C86.0817 0.862856 85.5016 0.647685 84.7667 0.569441V0C86.0381 0.0695501 87.1351 0.13258 88.075 0.163008C89.0041 0.191263 89.8393 0.223864 90.5612 0.223864C91.3637 0.223864 92.284 0.191263 93.3352 0.163008C94.3864 0.13258 95.6665 0.0695501 97.1516 0V0.528146C95.9173 0.882417 94.6066 1.47142 93.2458 2.30602C91.8893 3.15149 89.9505 4.60552 87.4579 6.68116L79.6701 13.0928C82.2522 13.0928 84.4069 13.5297 86.1385 14.4012C87.8657 15.2684 89.4686 16.7616 90.9494 18.8611C91.5186 19.7044 92.3015 20.9411 93.2981 22.5734C95.3961 26.0465 97.1844 28.1939 98.6412 28.9807L98.6193 29.4762C97.9956 29.4588 97.3152 29.4414 96.565 29.4393C95.8126 29.4284 94.6742 29.4284 93.1673 29.4284C91.6603 29.4284 90.5132 29.4284 89.7434 29.4393C88.9779 29.4393 88.2691 29.4588 87.6149 29.4762C86.8603 28.3634 85.2443 24.9967 82.7494 19.3523C82.623 19.0546 82.5205 18.8394 82.4594 18.6916C81.8139 17.2702 81.1923 16.2378 80.6079 15.6053C80.0299 14.9728 79.4128 14.6599 78.752 14.6599C78.0912 14.6599 77.6637 14.8837 77.3846 15.3271C77.1229 15.7748 76.9833 16.5334 76.9833 17.5897V19.2154C76.9833 23.1015 77.221 25.6205 77.6921 26.7768C78.1675 27.9396 79.0595 28.6807 80.3767 28.9807L80.3505 29.5653C79.3539 29.5175 78.3114 29.4849 77.2276 29.461C76.1393 29.4414 74.7022 29.4306 72.9074 29.4306C71.215 29.4306 69.8695 29.4414 68.8619 29.461C67.8675 29.4849 66.8904 29.5197 65.9614 29.5653" fill="#F38120"/>
<path d="M65.9504 34.3779H220" stroke="#F28121" stroke-miterlimit="10"/>
</g>
<defs>
<clipPath id="clip0_3150_2491">
<rect width="220" height="56.2791" fill="white"/>
</clipPath>
</defs>
</svg>
